# xmcd
#
# Track frame offsets: 
#        150
#        17374
#        32737
#        47777
#        57753
#        69305
#        75154
#        96479
#        116656
#        136352
#        197194
#        224443
#        285175
#        297331
#
# Disc length: 4270 seconds
#
# Revision: 0
# Processed by: cddbd v1.5.2PL0 Copyright (c) Steve Scherf et al.
# Submitted via: ExactAudioCopy v1.1
#
DISCID=c410ac0e
DTITLE=Peter Kraus - Das Beste kommt zum Schluﬂ
DYEAR=1900
DGENRE=Rock and Roll
TTITLE0=Opener
TTITLE1=Die Letzten Rock'n Roller
TTITLE2=Johnny B. Goode
TTITLE3=Moonlight
TTITLE4=Sexy Hexy
TTITLE5=Schuld War Nur Der Bossanova
TTITLE6=Manchmal
TTITLE7=Lila Wolken
TTITLE8=Hamma
TTITLE9=Viva Las Vegas
TTITLE10=Ich Bin Ja So Allein - Lonely Boy
TTITLE11=Va Bene
TTITLE12=Tiger (Seniorenversion)
TTITLE13=So Wie Ein Tiger
EXTD=
EXTT0=
EXTT1=
EXTT2=
EXTT3=
EXTT4=
EXTT5=
EXTT6=
EXTT7=
EXTT8=
EXTT9=
EXTT10=
EXTT11=
EXTT12=
EXTT13=
PLAYORDER=
